<svg xmlns="http://www.w3.org/2000/svg" width="13.711" height="12.64" viewBox="0 0 13.711 12.64">
  <g id="D4dWQM.tif" transform="translate(138 -834)">
    <g id="Grupo_91" data-name="Grupo 91" transform="translate(-138 834)">
      <path id="Trazado_43" data-name="Trazado 43" d="M-127.4,846.64h-6.48a.3.3,0,0,0-.061-.022.949.949,0,0,1-.86-.729,3.01,3.01,0,0,1-.041-.743.857.857,0,0,1,.195-.517,1.086,1.086,0,0,1,.938-.416q3.051,0,6.1,0a1.34,1.34,0,0,0,.318-.027.762.762,0,0,0,.582-.809q0-2.008,0-4.015a.8.8,0,0,0-.886-.885h-5.617c.027.063.044.107.064.151.154.326.31.652.462.979a.62.62,0,0,1-.08.7.627.627,0,0,1-.846.1q-1.984-1.2-3.967-2.406a.829.829,0,0,1-.426-.518v-.214a.987.987,0,0,1,.441-.514c1.2-.826,2.388-1.659,3.585-2.484a4.969,4.969,0,0,1,.5-.269h.107a.176.176,0,0,0,.036.017.619.619,0,0,1,.475.9c-.119.3-.242.594-.363.891-.033.081-.064.162-.1.256h.178q2.772,0,5.543,0a3.605,3.605,0,0,1,.626.048,3.094,3.094,0,0,1,2.467,2.015,6.5,6.5,0,0,1,.216.851v4.74c-.016.087-.036.174-.049.262a3.164,3.164,0,0,1-2.27,2.522C-126.866,846.569-127.133,846.6-127.4,846.64Z" transform="translate(138 -834)" fill="#fff"/>
    </g>
  </g>
</svg>
