<svg id="RvEcOP.tif" xmlns="http://www.w3.org/2000/svg" width="13.686" height="14" viewBox="0 0 13.686 14">
  <g id="Grupo_117" data-name="Grupo 117">
    <path id="Trazado_44" data-name="Trazado 44" d="M-70.681,1357.4H-82.11c-.061-.015-.124-.027-.184-.045a1.253,1.253,0,0,1-.943-1.294q0-4.887,0-9.774a1.721,1.721,0,0,1,.081-.508,1.209,1.209,0,0,1,1.129-.8v.147c0,.492,0,.984,0,1.476a1.388,1.388,0,0,0,1.4,1.433c.282.007.565.007.847,0a1.4,1.4,0,0,0,1.407-1.446c0-.492,0-.984,0-1.476v-.146h3.939c0,.542,0,1.075,0,1.607a1.4,1.4,0,0,0,1.447,1.462c.26,0,.519,0,.779,0a1.392,1.392,0,0,0,1.432-1.448c0-.492,0-.984,0-1.476v-.181a3.537,3.537,0,0,1,.527.175,1.253,1.253,0,0,1,.688,1.209q0,4.86,0,9.719a2.257,2.257,0,0,1-.009.232,1.247,1.247,0,0,1-.42.817A1.414,1.414,0,0,1-70.681,1357.4Zm-5.728-1.339H-71.8a.558.558,0,0,0,.628-.633q0-2.474,0-4.948a.557.557,0,0,0-.632-.628h-9.2a.561.561,0,0,0-.636.639q0,2.468,0,4.935a.561.561,0,0,0,.64.635Z" transform="translate(83.238 -1343.4)" fill="#fff"/>
    <path id="Trazado_45" data-name="Trazado 45" d="M273.6,1289a.557.557,0,0,1,.38.605c-.008.846,0,1.693,0,2.54,0,.408-.172.579-.583.579-.246,0-.492,0-.737,0a.464.464,0,0,1-.5-.483c-.006-.919,0-1.839,0-2.758a.5.5,0,0,1,.375-.481Z" transform="translate(-262.435 -1289)" fill="#fff"/>
    <path id="Trazado_46" data-name="Trazado 46" d="M-4.293,1289a.552.552,0,0,1,.383.6c-.009.851,0,1.7,0,2.553,0,.392-.175.568-.565.569h-.7a.489.489,0,0,1-.557-.563q0-1,0-1.994c0-.187.008-.374,0-.56A.546.546,0,0,1-5.36,1289Z" transform="translate(7.854 -1289)" fill="#fff"/>
    <path id="Trazado_47" data-name="Trazado 47" d="M135.858,1559.872c.173,0,.346,0,.519,0a.32.32,0,0,1,.347.339c.007.351.006.7,0,1.052a.318.318,0,0,1-.338.348q-.532.014-1.066,0a.321.321,0,0,1-.341-.36q-.006-.512,0-1.025a.327.327,0,0,1,.359-.356h.519Z" transform="translate(-129.01 -1552.464)" fill="#fff"/>
    <path id="Trazado_48" data-name="Trazado 48" d="M135.845,1662.783c-.168,0-.337,0-.505,0a.328.328,0,0,1-.36-.356c0-.342,0-.683,0-1.025a.329.329,0,0,1,.354-.362q.519-.009,1.038,0a.329.329,0,0,1,.353.364q.006.506,0,1.011a.333.333,0,0,1-.375.369C136.182,1662.784,136.014,1662.783,135.845,1662.783Z" transform="translate(-129.01 -1650.861)" fill="#fff"/>
    <path id="Trazado_49" data-name="Trazado 49" d="M33.8,1560.717c0-.173,0-.346,0-.519a.317.317,0,0,1,.346-.351q.526-.006,1.052,0a.3.3,0,0,1,.338.316q.016.553,0,1.106a.3.3,0,0,1-.336.318c-.355.009-.71.01-1.065,0-.224-.006-.331-.134-.334-.364C33.8,1561.054,33.8,1560.885,33.8,1560.717Z" transform="translate(-30.6 -1552.438)" fill="#fff"/>
    <path id="Trazado_50" data-name="Trazado 50" d="M238.077,1560.721c0,.173,0,.346,0,.519a.319.319,0,0,1-.34.359c-.35.009-.7.008-1.052,0a.319.319,0,0,1-.348-.352q-.01-.519,0-1.038a.321.321,0,0,1,.361-.352q.512,0,1.024,0a.322.322,0,0,1,.354.357c0,.009,0,.018,0,.027Z" transform="translate(-227.594 -1552.45)" fill="#fff"/>
    <path id="Trazado_51" data-name="Trazado 51" d="M33.8,1661.926c0-.168,0-.337,0-.505a.328.328,0,0,1,.361-.366c.341,0,.683-.005,1.024,0a.321.321,0,0,1,.353.347q.012.526,0,1.052a.319.319,0,0,1-.355.344c-.346,0-.692,0-1.038,0a.32.32,0,0,1-.346-.352C33.8,1662.272,33.8,1662.1,33.8,1661.926Z" transform="translate(-30.601 -1650.877)" fill="#fff"/>
    <path id="Trazado_52" data-name="Trazado 52" d="M238.123,1661.892c0,.177,0,.355,0,.533a.314.314,0,0,1-.331.338q-.539.009-1.079,0a.3.3,0,0,1-.325-.315q-.016-.553,0-1.106a.307.307,0,0,1,.336-.32c.355-.007.71-.008,1.065,0a.317.317,0,0,1,.334.351C238.126,1661.546,238.123,1661.719,238.123,1661.892Z" transform="translate(-227.64 -1650.844)" fill="#fff"/>
  </g>
</svg>
