<svg xmlns="http://www.w3.org/2000/svg" width="13.846" height="15.615" viewBox="0 0 13.846 15.615">


  <g id="VBt7Lu.tif" transform="translate(162.76 -661.081)">
    <g id="Grupo_90" data-name="Grupo 90" transform="translate(-162.76 661.081)">
      <path id="Trazado_40" data-name="Trazado 40" d="M-162.76,672.152v-4.666a.45.45,0,0,0,.02-.056.879.879,0,0,1,.958-.766h.278v-.2c0-1.528.006-3.055,0-4.583a.731.731,0,0,1,.486-.8h7.624a2.943,2.943,0,0,1,.231.214q1.428,1.626,2.854,3.253a.553.553,0,0,1,.143.388c0,.518,0,1.036,0,1.554v.174c.131,0,.242,0,.352,0a.814.814,0,0,1,.689.328,2.748,2.748,0,0,1,.215.493v4.666a.251.251,0,0,0-.018.041.884.884,0,0,1-.979.777h-.259v.205c0,.908-.009,1.815,0,2.723a.727.727,0,0,1-.486.8h-10.369a.728.728,0,0,1-.486-.8c.013-.913,0-1.825,0-2.738v-.19c-.125,0-.23,0-.335,0a.817.817,0,0,1-.694-.314A2.814,2.814,0,0,1-162.76,672.152Zm1.876-5.5h10.09v-1.52h-2.587c-.309,0-.414-.1-.414-.411q0-1.426,0-2.851v-.17h-7.088Zm0,9.255c.057,0,.106.008.155.008q4.893,0,9.785,0c.125,0,.164-.033.163-.161-.005-.879,0-1.758,0-2.637,0-.045,0-.089-.008-.142h-10.093Zm3.471-3.691a6.773,6.773,0,0,0,2.375-.08,2.148,2.148,0,0,0,1.112-.652,2.444,2.444,0,0,0,.553-1.607,2.009,2.009,0,0,0-1.682-2.157,6.323,6.323,0,0,0-1.745-.06c-.2.012-.409.042-.613.064Zm-2.92-1.583a8.86,8.86,0,0,0,.947-.075,1.418,1.418,0,0,0,1.263-1.111,1.367,1.367,0,0,0-1.129-1.75,6.087,6.087,0,0,0-1.5-.039c-.2.013-.4.043-.595.065v4.5h1.017Zm7.647,1.593h1.034V670.4h1.627v-.843h-1.622v-1.044h1.74v-.831h-2.779Z" transform="translate(162.76 -661.081)" fill="#666363"/>
      <path id="Trazado_41" data-name="Trazado 41" d="M46.707,905.005v-2.991a1.8,1.8,0,0,1,1.462.288,1.172,1.172,0,0,1,.4.747,2.108,2.108,0,0,1-.094,1.138,1.247,1.247,0,0,1-1.1.815A5.934,5.934,0,0,1,46.707,905.005Z" transform="translate(-40.319 -894.633)" fill="#666363"/>
      <path id="Trazado_42" data-name="Trazado 42" d="M-83.1,903.294c0-.427,0-.843,0-1.258a.141.141,0,0,1,.093-.1,3.113,3.113,0,0,1,.59.005.6.6,0,0,1,.539.554.687.687,0,0,1-.414.74A1.389,1.389,0,0,1-83.1,903.294Z" transform="translate(85.534 -894.578)" fill="#666363"/>
    </g>
  </g>
</svg>
